<?xml version="1.0" encoding="utf-8"?>
<svg viewBox="65.879 113.114 354.568 122.125" xmlns="http://www.w3.org/2000/svg" xmlns:bx="https://boxy-svg.com">
  <defs>
    <path id="text-path-0" d="M 66.1512461481725 258.32251739501953 Q 225.7274220220097 192.11973571777344 385.3035978958469 258.32251739501953"/>
    <filter id="drop-shadow-filter-0" x="-500%" y="-500%" width="1000%" height="1000%" bx:preset="drop-shadow 1 4 5 2 0.46 rgba(0,0,0,0.64)">
      <feGaussianBlur in="SourceAlpha" stdDeviation="2"/>
      <feOffset dx="4" dy="5"/>
      <feComponentTransfer result="offsetblur">
        <feFuncA id="spread-ctrl" type="linear" slope="0.92"/>
      </feComponentTransfer>
      <feFlood flood-color="rgba(0,0,0,0.64)"/>
      <feComposite in2="offsetblur" operator="in"/>
      <feMerge>
        <feMergeNode/>
        <feMergeNode in="SourceGraphic"/>
      </feMerge>
    </filter>
    <linearGradient gradientUnits="userSpaceOnUse" x1="218.442" y1="185.871" x2="218.442" y2="256.768" id="gradient-0" gradientTransform="matrix(0.999931, -0.011754, 0.008766, 0.745778, -1.614347, 49.820133)">
      <stop offset="0" style="stop-color: rgb(67, 86, 232);"/>
      <stop offset="1" style="stop-color: rgb(43, 23, 126);"/>
    </linearGradient>
  </defs>
  <path d="M 75.30898195840948 219.5603554948404 Q 73.47334653150627 220.23039690853273 73.38756801916976 221.31688824999202 Q 73.32080644863589 222.12510590309043 73.77948725237698 224.24892803770513 Q 74.23816805611807 226.3727501723198 74.84023425392859 228.02216171533428 Q 75.19953182358971 229.00648795874613 75.97396414297188 229.14587784350016 Q 76.74839646235404 229.28526772825418 78.50422165330494 228.64435854993977 Q 79.67477178060552 228.2170857643968 80.0780715102561 227.58750552500567 Q 80.48137123990666 226.9579252856145 80.32519022099241 225.8693096692107 Q 79.87859747789541 222.74619062504587 81.76743972876683 222.0567277211016 Q 85.01305599082755 220.87201681573248 87.84859356761258 228.64021311509097 Q 89.64508141591817 233.56184433215026 89.07993540672055 236.3910106664441 Q 88.74329571490595 238.11173534563284 87.2535046437961 238.6555370726875 Q 85.68390333673395 239.2284710351201 84.6773237639249 237.21419819450963 Q 84.0490587025796 235.9059779089502 83.64560746505332 235.42013684572885 Q 83.24215622752703 234.93429578250746 82.4989804184673 234.63275660245498 Q 81.3200347240866 234.12850542010494 79.64401976908802 234.74028236304144 Q 78.44686622980332 235.17726589371037 78.17658356007327 235.75829240747166 Q 77.90630089034322 236.33931892123294 78.39649124498035 237.5170509702657 Q 78.47417720598816 237.72987826613854 79.27298712971202 240.0008790299134 Q 80.95294603650589 244.60326930316342 82.27967718272075 245.26461213402425 Q 82.74457930341964 245.54713437227412 83.12082030628784 245.54546541212787 Q 83.49706130915604 245.54379645198165 84.98472810532138 245.24195425617773 Q 85.71525979741199 245.09588853083878 86.41746835102332 245.5329735942056 Q 87.11967690463464 245.97005865757245 87.41099925841394 246.76816101709557 Q 88.1587266331141 248.8166237398716 85.97805594731618 250.27586586485975 Q 82.82064548828787 252.36296850274388 76.56884367202335 254.64499360734828 Q 71.08854080329785 256.64540710329936 68.78041678551428 256.76436333550697 Q 67.7424791696849 256.811601883091 66.87559249738129 256.25373932832343 Q 66.00870582507768 255.6958767735559 65.66882974566852 254.76475735411225 Q 65.24155696012558 253.59420722681165 65.83067602521555 252.5651712592096 Q 65.98523885033254 252.32786482629717 67.0510950561919 251.3659949776783 Q 68.32724973453026 250.23691818697336 67.84302765627731 248.00182703185925 Q 67.12746742149614 244.55481394554687 62.8741610563186 232.90251949650914 Q 61.03883022750911 227.87447463151344 60.14918414466109 226.51092324704126 Q 59.25953806181307 225.14737186256912 57.71573106983638 225.04763405521763 Q 56.171924077859686 224.94789624786614 55.59934389752746 224.65945649958104 Q 55.02676371719524 224.37101675129594 54.72573061828997 223.54631097978873 Q 54.298457832747026 222.37576085248813 55.155937566847214 221.17339815854007 Q 56.01341730094741 219.97103546459203 57.68943225594599 219.35925852165553 Q 58.75356873531016 218.9708287166165 60.86029592884205 218.38272181382095 Q 65.32289176888875 217.1457147140802 71.36186628928044 214.94137557048361 Q 81.01890483951033 211.4163750897543 84.17671984698795 209.66075296419922 Q 84.60955636046577 209.4424634730894 84.84898706832271 209.35506676695562 Q 85.78010648776636 209.01519068754646 87.01984547629675 209.7685833228794 Q 90.44854918500725 211.89361989401317 91.76921052214001 215.51168392385136 Q 92.37127671995053 217.16109546686585 91.95907534207262 218.42703331893102 Q 91.5468739641947 219.69297117099617 90.29651360094181 220.14937619191704 Q 89.36539418149815 220.48925227132622 88.7505823340206 220.29159791581634 Q 88.13577048654307 220.09394356030646 85.35141540913735 218.5778520929639 Q 83.64930312330189 217.6314582004594 81.80461454029565 217.8224359242132 Q 79.9599259572894 218.01341364796704 75.30898195840948 219.5603554948404 Z M 116.60115378957366 213.44523355448956 L 119.95998824068046 226.0028145898137 Q 121.09423516861412 230.24339206361597 122.16221390119269 231.27694896211207 Q 123.45288579677953 232.48546804269083 126.35289361757333 231.70978949842652 Q 129.47176995314402 230.87556917723657 130.91154909426834 229.02467130024473 Q 132.35132823539263 227.1737734232529 132.2869723641532 224.08350482745087 Q 132.2216988918393 222.1954323131531 133.6717028022362 221.80759304102094 Q 135.1217067126331 221.4197537688888 136.38581041875716 222.4741418845006 Q 137.64991412488118 223.5285300001124 138.20606100567448 225.60778089049285 Q 139.1134585480214 229.00024286953467 137.62826944640102 233.53103087712188 Q 137.16416857554134 234.97438021409724 136.68302257481395 235.58678641237 Q 136.20187657408655 236.19919261064277 135.35376107932612 236.4260419962295 L 129.08258129714346 237.31189506854312 L 109.95894481851258 242.42698282741821 Q 108.07120387856189 242.93190565340157 107.18808052299156 242.69906484308743 Q 105.89807177609886 242.3698444698476 105.56145655877661 241.11135050988048 Q 105.35656033953698 240.34531070816138 105.62711170966102 239.87718084091338 Q 105.89766307978506 239.40905097366542 107.13736537294233 238.3445653149712 Q 108.49922504360374 237.1887739170042 108.57839368948817 235.73112071014452 Q 108.63402841925688 234.51428918440885 107.18511944034806 229.0972934436808 Q 106.51188900570355 226.58030552374655 105.1091302579517 221.88386250227478 Q 103.75759556500977 217.3789294312328 103.11554834294375 215.08812774819114 Q 102.53013057368767 212.89944260042222 101.9722757169356 212.1838364786287 Q 101.41442086018353 211.4682303568352 100.22494789879495 211.40527790495076 Q 98.25097504322447 211.25900058460348 97.65607277535665 211.00769968182655 Q 96.59765566335656 210.5579026808512 96.36348855565413 209.68242862174364 Q 95.82929484120794 207.6852534244045 98.86160768681178 205.76018360321444 Q 101.43805498474612 204.10362560184254 106.1710866167964 202.83765967582625 Q 111.47864810013601 201.41802158538025 114.25142471977273 201.26269154921516 Q 117.84146519593847 201.09397524424023 118.43420068731025 203.31001895635626 Q 118.67568551712839 204.21285157981092 118.34135275925227 204.77133102427376 Q 118.00702000137615 205.32981046873664 116.45365038028496 206.53682592151353 Q 115.53842621106163 207.27999495581105 115.56486717433427 208.47487331519963 Q 115.5913081376069 209.6697516745882 116.60115378957366 213.44523355448956 Z M 146.98880081323696 193.15790773080033 Q 152.46880628516786 192.27432835521552 155.4432742979034 192.3971418206508 Q 156.79792976505144 192.43689599715532 157.71423083343424 193.04933545022678 Q 158.63053190181705 193.6617749032982 158.78380587513277 194.61238809740865 Q 158.90101538413893 195.33932759878726 158.40763029617113 196.1934035886087 Q 157.69776590483025 197.48398912109786 157.77891094952682 197.9872549297446 Q 157.94120103891996 198.99378654703804 159.8910126846917 200.94560495455949 Q 161.15541447355022 202.20472659829335 162.0780684560692 202.05596068301634 Q 162.66521189949037 201.96129146420367 163.15452123172022 201.4377625237617 Q 163.6438305639501 200.91423358331974 164.35820301332967 199.65160726242203 Q 165.22771742150135 198.10579163093007 165.0969837383791 197.29497449477702 Q 165.01583869368253 196.7917086861303 164.84944971917258 196.5603620429811 Q 164.6830607446626 196.3290153998319 163.74692884678532 195.50462783080496 Q 163.0840592800656 194.95172712497478 162.90824501655635 193.8613178729069 Q 162.39883445818347 190.70192696306918 170.95435320517765 189.32246120322756 Q 175.7912968105044 188.5425671625328 177.31730474188078 188.75549552998424 Q 178.28503930478672 188.88632173062206 179.01238797908718 189.5722564073516 Q 179.73973665338764 190.25819108408115 179.88399451062597 191.15288585500866 Q 180.0688248902126 192.2992135302595 179.46451381923816 192.99905842464813 Q 178.8602027482637 193.69890331903673 177.17632026801738 194.28595424494233 Q 175.63223384572842 194.85046488065447 174.6044588451438 195.94847769500302 Q 173.57668384455914 197.04649050935157 170.98621911095668 200.90649840066388 Q 167.84645086620344 205.629598397875 167.22312731157825 207.72378354777953 Q 166.59980375695304 209.81796869768408 167.22191576629336 213.67633989730888 Q 167.74485049878234 216.91960844192107 168.44278114893683 219.64699786712973 Q 168.85756874725482 221.32996948401677 169.354937073445 221.92389814387488 Q 169.85230539963518 222.517826803733 171.18619604455054 222.9625341166344 Q 173.39852469619942 223.69589592028584 173.65548400440522 225.28957098100045 Q 174.26857989766816 229.0920237574423 163.0289768378915 230.90426308899893 Q 158.4157069252966 231.6480926653841 154.16144496411007 231.41608242614524 Q 150.57278515972118 231.22018290997372 150.21214051662534 228.98344598265498 Q 149.93264091822607 227.24997486398297 151.93582343213401 226.15246374007182 Q 153.43933733207464 225.33632020003637 153.6910164951558 224.40647182815857 Q 154.27465526141313 222.33302837110782 153.1160843454677 215.1475109920964 Q 152.75543970237186 212.91077406477763 152.10748373418605 211.73871807757575 Q 151.45952776600024 210.56666209037388 149.62965821931252 208.8249932014682 Q 145.8075827777862 205.2243996558929 141.92052653824172 202.46617965274154 Q 140.23673657551092 201.27467887958812 138.81354937442313 200.98779985679892 Q 136.79962153523473 200.59536751364328 136.3540958764896 200.32296978708726 Q 135.4630445589993 199.7781743339752 135.28272223745134 198.6598058703158 Q 134.98068234885858 196.78653869368637 137.67157500745688 195.5064280898291 Q 140.3624676660552 194.22631748597178 146.98880081323696 193.15790773080033 Z M 217.36959178545695 185.8715548616314 Q 226.2053105800195 185.93372307955974 226.17960641299143 189.58695296577312 Q 226.17263241418536 190.5781393690093 225.71513497345643 191.19798270873213 Q 225.25763753272753 191.81782604845495 223.9778750723449 192.57348898962937 Q 222.8686280524147 193.24538863889313 222.5635011042028 194.34776128857163 Q 222.2583741559909 195.45013393825013 222.23466256005028 198.82016770925316 Q 222.22071456243816 200.80254051572552 222.95383634824512 201.2608349848894 Q 223.3766379499732 201.54701995673094 224.23998758714723 201.60973652158972 Q 225.10333722432128 201.67245308644848 228.30345332619808 201.69496913973666 Q 231.22037331286458 201.71549262193736 231.9305554290866 201.4089583229246 Q 232.64073754530864 201.10242402391182 232.64950485809342 199.85636111698633 Q 232.67580679644772 196.11817239620987 232.34633282785003 194.64316151181117 Q 232.01685885925235 193.1681506274125 231.02945834108232 192.6231040097068 Q 229.78837686187543 191.90634640889618 229.395389299984 191.40796360775568 Q 229.00240173809254 190.90958080661514 229.00818019424617 190.08831207250518 Q 229.0163497357047 188.92720800014277 229.90093280599967 187.98467798455923 Q 230.78551587629468 187.04214796897568 232.2038875376513 186.7122754861605 Q 235.15410856355743 186.02500793744412 239.60028757235975 186.056291303517 Q 244.81109609222995 186.09295461152604 247.28238698717746 187.05909659449583 Q 249.75367788212498 188.02523857746564 249.73953062740412 190.03593099545904 Q 249.72757520087941 191.73510768672105 247.965781573313 192.5723420916099 Q 246.85773009603525 193.07432407174747 246.5146070154886 193.53920657653958 Q 246.17148393494188 194.0040890813317 245.96428008440114 195.27707680001703 Q 245.8460202105984 195.9842700596079 245.63684889104948 201.56203798659908 Q 245.42767757150057 207.13980591359027 245.4045637468862 210.4248808500302 Q 245.36411455381102 216.17376198880007 245.77794958564556 217.73432947908807 Q 245.9985287645515 218.58551188158907 246.2797323086744 218.87070056788684 Q 246.5609358527973 219.15588925418461 248.05589755014975 220.0160382265791 Q 249.1278583886654 220.61832183865312 249.11929033298935 221.83606513405758 Q 249.10414679272478 223.98835560965614 246.53434757981952 224.9473494387904 Q 243.96454836691427 225.90634326792468 238.2156672281444 225.8658940748495 Q 233.17477637740038 225.83042630949296 230.7745833969186 224.8223030520135 Q 228.60034953727882 223.90073268596706 228.61369976356468 222.0033187140578 Q 228.62505741876313 220.38910085735887 230.30229072598397 219.4946294581017 Q 231.12674757383385 219.04729412991878 231.42729160854464 218.59627254522405 Q 231.7278356432554 218.14525096052932 232.01959981414177 216.92950023621233 Q 232.54609041865493 214.5542394964029 232.57039978592178 211.09924689083678 Q 232.58295298377269 209.31511136501163 232.06202902726474 208.88663093568437 Q 231.54110507075677 208.45815050635707 229.33217537211613 208.44260845187497 Q 224.2629649098511 208.4069414294097 222.87131880314553 208.96357006150188 Q 222.30333251585492 209.18614181149525 222.1539634310087 210.28961037527185 Q 221.97448142066276 211.647756185629 221.9605334230506 213.63012899210136 Q 221.93781811265373 216.85856470549922 222.83408282588957 218.28092150903075 Q 223.14241043888103 218.73622712156347 224.2985330835248 219.45238695104786 Q 225.48317459679834 220.14042642611994 225.47221545581738 221.6980050597768 Q 225.45826745820526 223.68037786624916 222.70389262764144 224.70887555297918 Q 219.9495177970776 225.7373732397092 214.8519877232915 225.70150696013516 Q 210.20757143384196 225.66882879430102 207.26910657735178 224.68523926327643 Q 205.99771291553643 224.25147852056742 205.28104239224055 223.467608147466 Q 204.56437186894465 222.68373777436457 204.57094735353323 221.74919059417047 Q 204.5775228381218 220.81464341397634 205.03422325041575 220.30807852033766 Q 205.4909236627097 219.80151362669895 207.02576188389037 219.01932438798224 Q 207.82150060600173 218.6284290257326 208.15155979488603 218.0076890290204 Q 208.4816189837703 217.38694903230825 208.6618980225512 215.91552477586694 Q 209.11000527708984 212.60511908453717 209.1476648706426 207.25271250706177 Q 209.15463886944866 206.2615261038256 209.13588359914738 204.90198549370723 Q 209.07042685916196 198.10448170022414 209.07720160085927 197.14161490850898 Q 209.12265732373234 194.70632757480882 208.6891829156468 193.92444977279484 Q 208.25570850756125 193.14257197078086 206.3931896317616 192.1948738214096 Q 205.15131112411976 191.59139466668313 205.15967992268702 190.40197098279972 Q 205.17980489067023 187.5416902191753 210.7382197760339 186.47627976316895 Q 213.9712384029329 185.84764400858205 217.36959178545695 185.8715548616314 Z M 270.39563294939853 188.32321789490481 Q 273.6062416800055 188.66278338169568 276.3911554699659 189.52689117799406 Q 280.14093195434475 190.69239417737955 279.8788112276992 193.17075881153227 Q 279.792430533691 193.98749261142353 279.36903652122027 194.35564780898602 Q 278.94564250874953 194.7238030065485 277.31326256301685 195.34854811780727 Q 275.9492449507001 195.8592848582597 275.30854377031864 198.01282680061829 Q 274.66784258993715 200.16636874297683 273.99466890559734 206.53125973523274 Q 272.8568266603859 217.28961530621393 273.1208714549785 219.9090638916022 Q 273.2316334023234 220.74664820384024 273.5938313106439 221.22636868526897 Q 273.9560292189645 221.7060891666977 274.9162900570313 222.32025859367485 Q 276.68570419401664 223.3617461730293 276.5159214506212 224.96705053833278 Q 276.27762988094344 227.22010929665345 272.75235593587524 227.70161168726506 Q 268.93949235677496 228.20965410062496 263.5603145712844 227.6407329780192 Q 254.37910013112764 226.66969483158215 254.74845206412823 223.17745375618512 Q 254.88249107207199 221.91010820462975 256.8011052189465 221.00237531569064 Q 258.27046304704703 220.30343186774806 258.67882167764867 218.86575147642836 Q 259.5534886195407 215.7117369936199 260.65558712930056 205.2913402363868 Q 261.4181201522695 198.08155220976062 260.9003384685253 195.97635456712675 Q 260.62817761527907 194.77996092879377 259.2338214603837 193.69270602607497 Q 258.1595522515106 192.81017426568187 257.81888257198204 192.2615350203661 Q 257.4782128924534 191.71289577505033 257.5616149418406 190.92432520963808 Q 257.68969666054244 189.71330612704074 258.9344263292561 189.11875739959638 Q 260.17915599796976 188.524208672152 263.1958685106851 188.27370166777396 Q 266.79073893608546 187.9419513834203 270.39563294939853 188.32321789490481 Z M 310.1337395646845 194.17548529874517 Q 313.7696072312783 194.91323625184074 316.7807817660901 196.59343636041373 Q 318.1282882734203 197.35811422219285 318.6556278586515 197.46511626882503 Q 319.2107221588948 197.57775000212206 321.1165527129651 197.29981950339277 Q 321.73882353487454 197.2238019182695 322.3494272651422 197.3476990248962 Q 323.9036913058235 197.66307347812793 324.9474904515638 199.78210068883837 Q 326.6264182960872 203.18589878664588 325.9168257763158 206.68299287817885 Q 325.43250072313856 209.0698983692252 323.9266912268722 210.29591989494895 Q 322.4208817306058 211.52194142067273 320.45029696474194 211.12209166746825 Q 318.8405234940363 210.79545384090684 317.5227902932787 209.31438135716417 Q 317.12417206471497 208.85783138870352 315.748527493765 206.23800815283778 Q 313.45578654218167 201.8716360930616 309.4868622954418 201.06630489998778 Q 305.8787493438602 200.33418563355707 303.2205034122685 202.54005952985173 Q 300.56225748067686 204.7459334261464 299.6555559276357 209.2144425431052 Q 298.30958281473613 215.84781943101302 300.74953468652535 221.19767732616893 Q 301.68271869052904 223.14977252849428 303.2534638880406 224.52324757298888 Q 304.8242090855522 225.89672261748348 306.57275613131867 226.25151887736914 Q 308.01600131195136 226.54436658394144 309.1400774547963 225.77549041929421 Q 310.26415359764127 225.00661425464702 310.56826467754325 223.50785964399003 Q 310.83858563745616 222.17563332340603 310.17408735041255 221.46285179654683 Q 309.91383897859754 221.17886552313612 309.6586167159792 221.08373242730178 Q 309.4033944533609 220.98859933146744 308.0711681327769 220.71827837155456 Q 306.8777153872537 220.47611584496593 306.24157739269043 219.55235811218307 Q 305.6054393981271 218.6286003794002 305.84197023805086 217.46290234888923 Q 306.30940023123355 215.1592610028794 309.5595279158417 214.80733151058726 Q 313.1318525255782 214.434086426572 317.5170974975006 215.32389291961857 Q 322.20764433455673 216.27564796597855 325.20232752768607 217.89470695786233 Q 328.03611411740724 219.45222111474484 327.53489400423547 221.92239075082767 Q 327.3321532843008 222.92156049126567 326.4890457123781 223.5162682724668 Q 325.6459381404553 224.1109760536679 324.5075911066444 224.02448216213466 Q 323.5080176478943 223.9661467039257 323.1574604302856 224.1984385015725 Q 322.8069032126769 224.4307302992193 322.2707021942841 225.50672506140475 Q 320.18181126904955 229.67756222175063 316.1098814193896 231.94335589494597 Q 313.31186280180907 233.48512503765687 309.70876577457193 233.9388184233762 Q 306.10566874733473 234.39251180909554 302.3865369357044 233.6378657960054 Q 296.3082543480399 232.40452641640286 291.7979418539635 228.57070154050615 Q 287.1601191581559 224.65320880126086 285.48201911996114 218.96668123085456 Q 284.07341223535065 214.23065681246305 285.08148414835915 209.26256282528522 Q 286.1008194346973 204.23895940808308 289.7387464322605 200.26684615425538 Q 293.6107819598749 195.99546644027083 299.33592390031095 194.41189392044228 Q 304.3330041271417 192.99846278579113 310.1337395646845 194.17548529874517 Z M 352.57375441753146 204.81740386597403 Q 360.97420849489276 207.55714159029182 359.84143232041527 211.03040625689312 Q 359.534089947495 211.97276488736634 358.9101107963002 212.4246052274717 Q 358.28613164510546 212.87644556757704 356.8374350039585 213.20825346018745 Q 355.5766291885716 213.51197501982938 354.9514543838899 214.46982906762346 Q 354.32627957920823 215.42768311541755 353.28131551127933 218.6317024590265 Q 352.6666307654388 220.51641971997296 353.22616923474106 221.1755237137872 Q 353.54222511268097 221.57648719660253 354.3458609264979 221.89816318617437 Q 355.1494967403148 222.2198391757462 358.19196889012835 223.2121159797459 Q 360.96519571694955 224.11658067719696 361.734902341634 224.039941088277 Q 362.50460896631836 223.96330149935704 362.8909822351324 222.7786220781907 Q 364.0501020415745 219.22458381469167 364.18363060803665 217.71913360727308 Q 364.3171591744988 216.2136833998545 363.54164354646804 215.39477491324877 Q 362.5764943916733 214.33528833695385 362.3532221259441 213.74117207254912 Q 362.129949860215 213.14705580814442 362.38460496920607 212.3662443714666 Q 362.7446346060555 211.26233854719794 363.87346566426976 210.6325842454744 Q 365.002296722484 210.00282994375084 366.45389786530416 210.11879608890325 Q 369.47357949079617 210.35892868952828 373.7007310617761 211.73757876234203 Q 378.6548450048353 213.35332152283715 380.7165710240804 215.0236492871622 Q 382.7782970433255 216.6939770514872 382.1548310868301 218.60561884473287 Q 381.6279584475382 220.22109078268699 379.69520112533974 220.48439169106243 Q 378.487082573882 220.62656605690893 378.01909821048594 220.96544631198793 Q 377.5511138470898 221.30432656706694 376.96748764152625 222.45446204594845 Q 376.64025924595774 223.09245051080987 374.7488135531539 228.34389610982998 Q 372.8573678603502 233.59534170885007 371.83874742438593 236.71858745556133 Q 370.05616166144836 242.18426751230604 369.9770630599194 243.79683494858693 Q 369.9290229986673 244.6748206028029 370.110456215111 245.03187803234388 Q 370.2918894315547 245.3889354618849 371.4554533237682 246.66207559556977 Q 372.294180127387 247.56117677873854 371.9165880692278 248.71893166760566 Q 371.2492160594581 250.7651961223475 368.5095941187845 250.89939292240587 Q 365.7699721781109 251.03358972246423 360.3042921213662 249.25100395952668 Q 355.5117253721024 247.68794846296078 353.53048249958766 245.99918692682405 Q 351.7382922535022 244.46144867282396 352.3266333673782 242.65750500877522 Q 352.82716237470544 241.12280666771883 354.696708521316 240.77931306278032 Q 355.61801932847163 240.60317565498363 356.0412262880914 240.26458585007197 Q 356.4644332477112 239.92599604516028 357.11127062886277 238.8560532628418 Q 358.33353390525764 236.75245434149366 359.4048416051511 233.46766140098697 Q 359.95805787640757 231.7714158661352 359.5916721886947 231.20509548453165 Q 359.22528650098184 230.63877510292815 357.1251729816415 229.9538406718487 Q 352.3056817000784 228.38200396462793 350.8107554043186 228.49021528852424 Q 350.202015073095 228.52998733382083 349.72492519605913 229.53613804021668 Q 349.1418798908302 230.77582832665075 348.52719514498966 232.66054558759723 Q 347.5261371303351 235.72994226971 347.9486616311674 237.35716762562743 Q 348.10433211598115 237.8845534596187 348.98870767387814 238.917696403949 Q 349.9087889747293 239.93269602663497 349.4258223887117 241.4135453030929 Q 348.8111376428712 243.29826256403933 345.87455321561544 243.44269282558918 Q 342.9379687883596 243.587123087139 338.09155297449735 242.00650516926333 Q 333.6759296774228 240.56638662186555 331.17433948056777 238.73770661558564 Q 330.09445368692514 237.9386841516282 329.64936140630346 236.97433864170017 Q 329.2042691256817 236.00999313177218 329.4940490772923 235.12148356589742 Q 329.7838290289028 234.23297400002266 330.3726833374781 233.88883178911428 Q 330.96153764605344 233.54468957820586 332.66133628854834 233.26498804918998 Q 333.538160142095 233.1339184953369 334.04097889794326 232.64256270728467 Q 334.5437976537915 232.15120691923246 335.16196780163983 230.80381850360143 Q 336.5932374327475 227.7853663844139 338.25288624651694 222.69662977985848 Q 338.5602286194372 221.75427114938526 338.9548021985715 220.45311238836712 Q 340.9545946265421 213.95609979393126 341.2531557888075 213.04066569575727 Q 342.0352644374251 210.73393712867795 341.8594174797957 209.85740372529858 Q 341.68357052216635 208.9808703219192 340.19633134202735 207.51280085282337 Q 339.19605734461317 206.56101240572542 339.5648681921175 205.43018204915754 Q 340.4517704682588 202.7108042869348 346.0714460144486 203.38186481561812 Q 349.3428105416233 203.7636585873903 352.57375441753146 204.81740386597403 Z" transform="matrix(1, 0, 0, 1, 22, -50)" style="paint-order: fill; stroke: rgb(0, 0, 0); stroke-dashoffset: 4px; stroke-linejoin: round; text-transform: uppercase; white-space: pre; filter: url(#drop-shadow-filter-0); fill: url(#gradient-0);"/>
</svg>